<mxfile host="Electron" modified="2024-01-29T12:53:15.584Z" agent="Mozilla/5.0 (Windows NT 10.0; Win64; x64) AppleWebKit/537.36 (KHTML, like Gecko) draw.io/21.5.0 Chrome/112.0.5615.204 Electron/24.5.1 Safari/537.36" etag="SfhCFoZmEfnxL1RiKt1Z" version="21.5.0" type="device">
  <diagram name="第 1 页" id="hPq0gfpzH1U6weqHCJUz">
    <mxGraphModel dx="1977" dy="1401" grid="1" gridSize="10" guides="1" tooltips="1" connect="1" arrows="1" fold="1" page="1" pageScale="1" pageWidth="827" pageHeight="1169" math="0" shadow="0">
      <root>
        <mxCell id="0" />
        <mxCell id="1" parent="0" />
        <mxCell id="25bMlwEQt-OcdeUSjS0Z-49" value="D" style="whiteSpace=wrap;html=1;aspect=fixed;fontSize=22;" vertex="1" parent="1">
          <mxGeometry x="520" y="370" width="80" height="80" as="geometry" />
        </mxCell>
        <mxCell id="25bMlwEQt-OcdeUSjS0Z-50" value="0" style="whiteSpace=wrap;html=1;aspect=fixed;fontSize=22;" vertex="1" parent="1">
          <mxGeometry x="440" y="370" width="80" height="80" as="geometry" />
        </mxCell>
        <mxCell id="25bMlwEQt-OcdeUSjS0Z-51" value="C" style="whiteSpace=wrap;html=1;aspect=fixed;fontSize=22;" vertex="1" parent="1">
          <mxGeometry x="360" y="370" width="80" height="80" as="geometry" />
        </mxCell>
        <mxCell id="25bMlwEQt-OcdeUSjS0Z-52" value="E" style="whiteSpace=wrap;html=1;aspect=fixed;fontSize=22;" vertex="1" parent="1">
          <mxGeometry x="280" y="370" width="80" height="80" as="geometry" />
        </mxCell>
        <mxCell id="25bMlwEQt-OcdeUSjS0Z-53" value="B" style="whiteSpace=wrap;html=1;aspect=fixed;fontSize=22;" vertex="1" parent="1">
          <mxGeometry x="200" y="370" width="80" height="80" as="geometry" />
        </mxCell>
        <mxCell id="25bMlwEQt-OcdeUSjS0Z-54" value="0" style="whiteSpace=wrap;html=1;aspect=fixed;fontSize=22;" vertex="1" parent="1">
          <mxGeometry x="120" y="370" width="80" height="80" as="geometry" />
        </mxCell>
        <mxCell id="25bMlwEQt-OcdeUSjS0Z-55" value="D" style="whiteSpace=wrap;html=1;aspect=fixed;fontSize=22;" vertex="1" parent="1">
          <mxGeometry x="40" y="370" width="80" height="80" as="geometry" />
        </mxCell>
        <mxCell id="25bMlwEQt-OcdeUSjS0Z-56" value="A" style="whiteSpace=wrap;html=1;aspect=fixed;fontSize=22;" vertex="1" parent="1">
          <mxGeometry x="-40" y="370" width="80" height="80" as="geometry" />
        </mxCell>
        <mxCell id="25bMlwEQt-OcdeUSjS0Z-66" value="E" style="whiteSpace=wrap;html=1;aspect=fixed;fontSize=22;" vertex="1" parent="1">
          <mxGeometry x="600" y="370" width="80" height="80" as="geometry" />
        </mxCell>
        <mxCell id="25bMlwEQt-OcdeUSjS0Z-67" value="C" style="whiteSpace=wrap;html=1;aspect=fixed;fontSize=22;" vertex="1" parent="1">
          <mxGeometry x="920" y="370" width="80" height="80" as="geometry" />
        </mxCell>
        <mxCell id="25bMlwEQt-OcdeUSjS0Z-68" value="N" style="whiteSpace=wrap;html=1;aspect=fixed;fontSize=22;" vertex="1" parent="1">
          <mxGeometry x="840" y="370" width="80" height="80" as="geometry" />
        </mxCell>
        <mxCell id="25bMlwEQt-OcdeUSjS0Z-69" value="A" style="whiteSpace=wrap;html=1;aspect=fixed;fontSize=22;" vertex="1" parent="1">
          <mxGeometry x="760" y="370" width="80" height="80" as="geometry" />
        </mxCell>
        <mxCell id="25bMlwEQt-OcdeUSjS0Z-70" value="B" style="whiteSpace=wrap;html=1;aspect=fixed;fontSize=22;" vertex="1" parent="1">
          <mxGeometry x="680" y="370" width="80" height="80" as="geometry" />
        </mxCell>
        <mxCell id="25bMlwEQt-OcdeUSjS0Z-71" value="" style="endArrow=classic;html=1;rounded=0;" edge="1" parent="1">
          <mxGeometry width="50" height="50" relative="1" as="geometry">
            <mxPoint y="530" as="sourcePoint" />
            <mxPoint y="450" as="targetPoint" />
          </mxGeometry>
        </mxCell>
        <mxCell id="25bMlwEQt-OcdeUSjS0Z-72" value="" style="endArrow=classic;html=1;rounded=0;" edge="1" parent="1">
          <mxGeometry width="50" height="50" relative="1" as="geometry">
            <mxPoint x="399.29" y="530" as="sourcePoint" />
            <mxPoint x="399.29" y="450" as="targetPoint" />
          </mxGeometry>
        </mxCell>
      </root>
    </mxGraphModel>
  </diagram>
</mxfile>
